<svg width="29" height="29" viewBox="0 0 29 29" fill="none" xmlns="http://www.w3.org/2000/svg">
    <path
        d="M27.7655 11.2735H26.6363V11.2153H14.0191V16.8229H21.942C20.7861 20.0873 17.6802 22.4306 14.0191 22.4306C9.37387 22.4306 5.60764 18.6643 5.60764 14.0191C5.60764 9.37387 9.37387 5.60764 14.0191 5.60764C16.1633 5.60764 18.1141 6.41654 19.5994 7.73784L23.5647 3.77254C21.0609 1.43906 17.7117 0 14.0191 0C6.27705 0 0 6.27705 0 14.0191C0 21.7611 6.27705 28.0382 14.0191 28.0382C21.7611 28.0382 28.0382 21.7611 28.0382 14.0191C28.0382 13.0791 27.9415 12.1616 27.7655 11.2735Z"
        fill="#FFC107" />
    <path
        d="M1.61572 7.49391L6.2217 10.8718C7.46799 7.78621 10.4863 5.60764 14.0184 5.60764C16.1626 5.60764 18.1134 6.41654 19.5987 7.73784L23.564 3.77254C21.0602 1.43906 17.711 0 14.0184 0C8.63368 0 3.96392 3.04004 1.61572 7.49391Z"
        fill="#FF3D00" />
    <path
        d="M14.0196 28.0388C17.6407 28.0388 20.931 26.653 23.4187 24.3994L19.0798 20.7278C17.625 21.8342 15.8473 22.4326 14.0196 22.4311C10.3732 22.4311 7.27708 20.106 6.11069 16.8613L1.53906 20.3836C3.85922 24.9237 8.57104 28.0388 14.0196 28.0388Z"
        fill="#4CAF50" />
    <path
        d="M27.766 11.273H26.6367V11.2148H14.0195V16.8225H21.9424C21.3895 18.3761 20.3936 19.7337 19.0776 20.7275L19.0797 20.7261L23.4186 24.3977C23.1116 24.6767 28.0386 21.0282 28.0386 14.0187C28.0386 13.0787 27.9419 12.1611 27.766 11.273Z"
        fill="#1976D2" />
</svg>